HIERARCHY
ROOT Hips
{
	OFFSET -0.001795 -0.223333 0.028219
	CHANNELS 6 Xposition Yposition Zposition Zrotation Yrotation Xrotation 
	JOINT LeftUpLeg
	{
		OFFSET 0.069520 -0.091406 -0.006815
		CHANNELS 3 Zrotation Yrotation Xrotation
		JOINT LeftLeg
		{
			OFFSET 0.034277 -0.375199 -0.004496
			CHANNELS 3 Zrotation Yrotation Xrotation
			JOINT LeftFoot
			{
				OFFSET -0.013596 -0.397961 -0.043693
				CHANNELS 3 Zrotation Yrotation Xrotation
				JOINT LeftToe
				{
					OFFSET 0.026358 -0.055791 0.119288
					CHANNELS 3 Zrotation Yrotation Xrotation
					End Site
					{
						OFFSET 0.000000 0.000000 0.000000
					}
				}
			}
		}
	}
	JOINT RightUpLeg
	{
		OFFSET -0.067670 -0.090522 -0.004320
		CHANNELS 3 Zrotation Yrotation Xrotation
		JOINT RightLeg
		{
			OFFSET -0.038290 -0.382569 -0.008850
			CHANNELS 3 Zrotation Yrotation Xrotation
			JOINT RightFoot
			{
				OFFSET 0.015774 -0.398415 -0.042312
				CHANNELS 3 Zrotation Yrotation Xrotation
				JOINT RightToe
				{
					OFFSET -0.025372 -0.048144 0.123348
					CHANNELS 3 Zrotation Yrotation Xrotation
					End Site
					{
						OFFSET 0.000000 0.000000 0.000000
					}
				}
			}
		}
	}
	JOINT Spine
	{
		OFFSET -0.002533 0.108963 -0.026696
		CHANNELS 3 Zrotation Yrotation Xrotation
		JOINT Spine1
		{
			OFFSET 0.005487 0.135180 0.001092
			CHANNELS 3 Zrotation Yrotation Xrotation
			JOINT Spine2
			{
				OFFSET 0.001457 0.052922 0.025425
				CHANNELS 3 Zrotation Yrotation Xrotation
				JOINT Neck
				{
					OFFSET -0.002778 0.213870 -0.042857
					CHANNELS 3 Zrotation Yrotation Xrotation
					JOINT Head
					{
						OFFSET 0.005152 0.064970 0.051349
						CHANNELS 3 Zrotation Yrotation Xrotation
						End Site
						{
							OFFSET 0.000000 0.000000 0.000000
						}
					}
				}
				JOINT LeftShoulder
				{
					OFFSET 0.078845 0.121749 -0.034090
					CHANNELS 3 Zrotation Yrotation Xrotation
					JOINT LeftArm
					{
						OFFSET 0.090977 0.030469 -0.008868
						CHANNELS 3 Zrotation Yrotation Xrotation
						JOINT LeftForeArm
						{
							OFFSET 0.259612 -0.012772 -0.027456
							CHANNELS 3 Zrotation Yrotation Xrotation
							JOINT LeftHand
							{
								OFFSET 0.249234 0.008986 -0.001171
								CHANNELS 3 Zrotation Yrotation Xrotation
								End Site
								{
									OFFSET 0.000000 0.000000 0.000000
								}
							}
						}
					}
				}
				JOINT RightShoulder
				{
					OFFSET -0.081759 0.118833 -0.038615
					CHANNELS 3 Zrotation Yrotation Xrotation
					JOINT RightArm
					{
						OFFSET -0.096012 0.032551 -0.009143
						CHANNELS 3 Zrotation Yrotation Xrotation
						JOINT RightForeArm
						{
							OFFSET -0.253742 -0.013329 -0.021401
							CHANNELS 3 Zrotation Yrotation Xrotation
							JOINT RightHand
							{
								OFFSET -0.255298 0.007772 -0.005559
								CHANNELS 3 Zrotation Yrotation Xrotation
								End Site
								{
									OFFSET 0.000000 0.000000 0.000000
								}
							}
						}
					}
				}
			}
		}
	}
}
MOTION
Frames: 12
Frame Time: 0.050000
0.000000 0.935949 0.000000 -0.115192 23.556452 5.734185 8.447175 -0.823581 -7.179149 -3.537235 0.034563 5.973695 4.909498 13.629853 9.941124 0.000000 0.000000 0.000000 -10.891381 -0.637823 -10.957778 5.899228 -1.475552 8.931487 -9.164049 -18.217684 18.530757 0.000000 0.000000 0.000000 1.650990 -0.988413 12.297090 3.302018 0.431725 -29.391140 0.120929 -3.462296 24.365074 -2.309144 4.578636 -24.467092 0.000000 0.000000 0.000000 -31.515210 -3.795815 -5.048336 -46.683846 0.546153 -6.156405 -14.906616 -27.962159 4.398631 0.000000 0.000000 0.000000 20.629804 5.836243 5.525655 49.330073 7.351090 -4.648513 6.637500 32.492810 3.855159 0.000000 0.000000 0.000000 
0.005635 0.935321 -0.001895 -0.483918 21.466800 6.025368 8.099410 -0.775257 -7.164498 -3.407282 0.048487 5.977430 6.112079 15.262041 9.851545 0.000000 0.000000 0.000000 -11.300467 -0.635904 -11.891960 6.086240 -1.533994 10.023185 -6.991627 -15.092543 15.736297 0.000000 0.000000 0.000000 1.360528 -0.720518 10.142690 4.361468 0.181420 -28.560576 -0.492900 -1.551068 25.000208 -0.932039 3.844824 -23.179110 0.000000 0.000000 0.000000 -28.950736 -2.188989 -5.788253 -49.134894 0.838836 -6.812925 -15.053926 -28.684038 4.473442 0.000000 0.000000 0.000000 20.655586 6.180996 5.939243 49.308537 6.024853 -5.201016 7.015342 33.394376 4.111613 0.000000 0.000000 0.000000 
0.011286 0.934095 -0.004478 -0.799770 19.358854 5.568095 7.921912 -0.714693 -6.925367 -3.743660 0.080805 6.976057 7.375660 16.936454 9.587561 0.000000 0.000000 0.000000 -11.864175 -0.690497 -13.183194 7.100260 -1.912641 12.305042 -6.421426 -14.491116 14.699386 0.000000 0.000000 0.000000 2.195374 -0.842543 10.530981 2.987692 0.413573 -28.922056 0.616023 -1.277355 25.981344 -2.406349 4.656578 -24.454639 0.000000 0.000000 0.000000 -28.802039 -2.286923 -5.149661 -49.310684 -0.736457 -6.497853 -14.679775 -26.942578 4.216463 0.000000 0.000000 0.000000 19.921629 5.355411 5.094175 50.646319 5.630600 -5.477796 6.697841 34.144027 4.216469 0.000000 0.000000 0.000000 
0.017503 0.933156 -0.007783 -1.240406 17.452700 5.315739 7.636433 -0.692496 -7.479651 -3.719052 0.044216 8.749792 8.586647 18.630453 9.453560 0.000000 0.000000 0.000000 -12.113670 -0.672477 -14.111629 7.064140 -1.895213 13.312270 -5.108967 -12.370375 14.575477 0.000000 0.000000 0.000000 2.149951 -0.825217 10.534095 3.399511 0.294667 -28.610985 0.965940 -1.742368 26.398970 -1.996306 4.196771 -25.201682 0.000000 0.000000 0.000000 -29.431166 -1.801216 -4.919459 -49.658819 -0.545117 -6.783995 -13.460155 -27.455664 4.124898 0.000000 0.000000 0.000000 18.928132 6.379555 5.119602 50.405075 5.643863 -5.364022 6.741176 34.191803 4.138675 0.000000 0.000000 0.000000 
0.023870 0.931759 -0.011935 -1.360746 15.264394 4.921091 7.346438 -0.658825 -7.845990 -4.391541 0.124206 10.596152 9.904635 20.518139 9.512197 0.000000 0.000000 0.000000 -12.492021 -0.677530 -15.475989 7.006695 -1.882283 14.813747 -4.413225 -11.464776 15.356546 0.000000 0.000000 0.000000 2.120596 -0.917191 11.772623 4.498620 0.041036 -28.311989 0.325579 -0.828327 25.889300 -1.051651 3.542391 -24.993573 0.000000 0.000000 0.000000 -29.105940 -2.442135 -4.142851 -49.148148 -0.983450 -6.578277 -14.516810 -27.725639 4.458618 0.000000 0.000000 0.000000 19.813468 5.503526 4.519383 49.569529 4.870838 -5.581202 7.602253 35.688933 4.614722 0.000000 0.000000 0.000000 
0.030832 0.930860 -0.017023 -1.713005 11.718332 4.984032 7.427602 -0.619818 -8.479146 -5.675165 0.404128 12.158397 11.896921 23.438372 10.480277 0.000000 0.000000 0.000000 -12.288482 -0.469712 -16.903439 6.142864 -1.462167 15.114872 -2.704098 -8.942219 15.324587 0.000000 0.000000 0.000000 1.749603 -0.837722 11.790716 5.993817 -0.375663 -27.190462 -0.055086 -1.022619 25.452710 -0.068218 2.554733 -24.822341 0.000000 0.000000 0.000000 -29.583955 -2.418753 -3.164462 -48.849350 -1.725615 -6.484199 -14.216031 -28.016151 4.603284 0.000000 0.000000 0.000000 19.267089 6.456126 4.303610 49.209400 4.265980 -5.606709 7.701648 36.605110 4.612945 0.000000 0.000000 0.000000 
0.038056 0.930161 -0.023303 -1.883637 8.061874 4.748418 6.963706 -0.559664 -8.553936 -6.409409 0.668886 13.191647 13.951161 26.291187 11.714441 0.000000 0.000000 0.000000 -12.080404 -0.238166 -18.211977 5.350669 -1.063859 15.208940 -1.462999 -7.482708 16.302449 0.000000 0.000000 0.000000 1.670880 -0.898111 13.198959 6.695994 -0.595641 -27.068411 -0.377083 -1.130363 25.401006 1.197862 1.472857 -25.786689 0.000000 0.000000 0.000000 -29.604795 -2.593865 -1.942690 -48.345766 -2.965877 -6.256029 -14.043940 -28.521487 4.816724 0.000000 0.000000 0.000000 19.567678 6.382227 3.595271 48.407580 3.717077 -5.642801 8.725493 38.220340 5.027194 0.000000 0.000000 0.000000 
0.045628 0.929702 -0.031064 -2.065769 3.756090 4.466173 6.316648 -0.515967 -8.922269 -6.980951 0.991660 14.668831 16.491742 29.537664 13.843638 0.000000 0.000000 0.000000 -11.356749 0.139786 -19.291387 4.036539 -0.521658 14.679595 -0.126265 -6.012562 16.928475 0.000000 0.000000 0.000000 1.255056 -0.883461 14.769028 8.023368 -1.048093 -25.977781 -0.961848 -1.916608 24.922463 2.598563 0.157861 -26.527424 0.000000 0.000000 0.000000 -29.471558 -2.300981 -0.633606 -47.836048 -4.829674 -5.873766 -14.268645 -29.613864 5.301319 0.000000 0.000000 0.000000 18.930586 7.463936 3.174598 48.446375 3.589851 -5.429905 8.860452 38.864582 4.842409 0.000000 0.000000 0.000000 
0.053112 0.929662 -0.039795 -2.503347 -0.621531 4.724834 6.308131 -0.448878 -9.232198 -8.085384 1.480503 14.724845 19.179365 32.638598 16.165619 0.000000 0.000000 0.000000 -10.418526 0.579875 -21.193678 3.149140 -0.154398 13.658693 1.119327 -5.476862 19.714938 0.000000 0.000000 0.000000 0.819011 -0.834202 16.637283 9.322935 -1.360001 -26.258086 -1.292339 -2.187237 25.033774 5.073237 -1.588058 -27.901699 0.000000 0.000000 0.000000 -28.747281 -2.387194 0.726506 -47.601040 -6.423404 -5.621239 -15.190291 -30.672125 5.969712 0.000000 0.000000 0.000000 18.983463 7.229638 2.214569 48.124849 3.420697 -5.300017 9.448277 40.202256 4.939353 0.000000 0.000000 0.000000 
0.060270 0.929607 -0.048835 -2.920006 -5.193161 5.265305 6.313360 -0.390832 -10.329360 -9.139959 2.065864 15.495716 22.260629 35.648400 19.408785 0.000000 0.000000 0.000000 -9.425566 1.098032 -23.121380 1.926914 0.209590 12.529229 3.385742 -3.454562 21.941836 0.000000 0.000000 0.000000 0.271612 -0.682575 18.230501 10.804122 -1.721330 -26.074905 -1.795072 -3.450218 25.277560 6.828337 -3.066530 -28.956444 0.000000 0.000000 0.000000 -28.872363 -1.919371 2.040629 -46.324595 -8.137841 -5.366553 -16.774356 -31.515484 6.861647 0.000000 0.000000 0.000000 18.623830 7.974154 1.502696 47.851502 3.728032 -4.912617 9.534383 41.019721 4.584551 0.000000 0.000000 0.000000 
0.066541 0.930042 -0.056948 -3.637826 -9.704979 6.293298 6.994292 -0.235901 -11.249557 -10.584562 2.741975 15.141167 25.450094 38.300395 22.827326 0.000000 0.000000 0.000000 -8.080053 1.766830 -25.396775 1.570104 0.338149 11.599810 3.992600 -3.821785 22.939901 0.000000 0.000000 0.000000 0.031565 -0.524147 19.750367 12.028931 -1.953524 -26.158758 -2.315356 -4.437334 25.048722 7.919464 -4.123226 -29.302095 0.000000 0.000000 0.000000 -28.531391 -1.210292 2.943983 -45.558061 -8.695744 -5.437400 -17.818628 -33.290297 7.851759 0.000000 0.000000 0.000000 19.187359 7.880667 0.315576 46.632488 3.259437 -4.613302 10.657058 42.019635 4.587376 0.000000 0.000000 0.000000 
0.071405 0.929517 -0.063578 -4.399162 -14.649713 6.873149 7.966092 0.041269 -11.888220 -12.307992 3.693126 15.519902 29.148699 40.779839 27.047646 0.000000 0.000000 0.000000 -7.328567 2.400398 -27.029066 1.741168 0.413000 11.736780 4.745334 -3.232145 21.951160 0.000000 0.000000 0.000000 -0.606602 -0.192201 21.487231 13.435991 -2.191708 -26.217241 -2.311518 -5.783813 25.632939 8.446984 -4.901320 -30.178310 0.000000 0.000000 0.000000 -28.979279 -0.175715 3.850833 -44.294027 -10.147742 -5.327672 -18.630564 -34.495588 8.669895 0.000000 0.000000 0.000000 19.477990 8.583110 -0.608176 44.996497 3.378549 -4.069139 11.171638 42.096852 4.185095 0.000000 0.000000 0.000000 
